<svg width="453" height="50" viewBox="0 0 453 50" fill="none" xmlns="http://www.w3.org/2000/svg">
<path d="M7.992 5.73599V32.76H20.952L20.136 39H0.119995V5.73599H7.992Z" fill="#0E0E0E"/>
<path d="M45.3862 39H38.8102L38.4742 35.784C36.6182 38.472 34.0422 39.816 30.7462 39.816C28.4102 39.816 26.6342 39.112 25.4182 37.704C24.2342 36.296 23.6422 34.328 23.6422 31.8V13.512H31.2262V30.84C31.2262 32.088 31.4182 32.968 31.8022 33.48C32.2182 33.96 32.8422 34.2 33.6742 34.2C35.2742 34.2 36.6502 33.208 37.8022 31.224V13.512H45.3862V39Z" fill="#0E0E0E"/>
<path d="M58.935 13.512V39H51.351V13.512H58.935ZM55.095 0.071991C56.407 0.071991 57.479 0.487991 58.311 1.31999C59.175 2.11999 59.607 3.14399 59.607 4.39199C59.607 5.63999 59.175 6.67999 58.311 7.51199C57.479 8.31199 56.407 8.71199 55.095 8.71199C53.783 8.71199 52.711 8.31199 51.879 7.51199C51.047 6.67999 50.631 5.63999 50.631 4.39199C50.631 3.14399 51.047 2.11999 51.879 1.31999C52.711 0.487991 53.783 0.071991 55.095 0.071991Z" fill="#0E0E0E"/>
<path d="M82.8499 13.512V18.84L71.3299 33.24H83.0899L82.4179 39H62.5459V33.624L74.1139 19.224H63.5539V13.512H82.8499Z" fill="#0E0E0E"/>
<path d="M115.984 39L114.256 31.848H104.56L102.88 39H94.7197L104.752 5.73599H114.304L124.336 39H115.984ZM105.904 26.136H112.912L109.408 11.448L105.904 26.136Z" fill="#0E0E0E"/>
<path d="M148.136 39H141.56L141.224 35.784C139.368 38.472 136.792 39.816 133.496 39.816C131.16 39.816 129.384 39.112 128.168 37.704C126.984 36.296 126.392 34.328 126.392 31.8V13.512H133.976V30.84C133.976 32.088 134.168 32.968 134.552 33.48C134.968 33.96 135.592 34.2 136.424 34.2C138.024 34.2 139.4 33.208 140.552 31.224V13.512H148.136V39Z" fill="#0E0E0E"/>
<path d="M177.573 15C175.909 15.672 173.461 16.008 170.229 16.008C171.893 16.712 173.109 17.576 173.877 18.6C174.645 19.624 175.029 20.952 175.029 22.584C175.029 24.216 174.597 25.688 173.733 27C172.869 28.28 171.621 29.288 169.989 30.024C168.389 30.76 166.501 31.128 164.325 31.128C163.301 31.128 162.325 31.032 161.397 30.84C161.141 30.968 160.933 31.176 160.773 31.464C160.645 31.72 160.581 31.992 160.581 32.28C160.581 32.76 160.757 33.144 161.109 33.432C161.493 33.688 162.245 33.816 163.365 33.816H167.205C169.157 33.816 170.869 34.136 172.341 34.776C173.813 35.416 174.949 36.296 175.749 37.416C176.549 38.536 176.949 39.8 176.949 41.208C176.949 43.864 175.797 45.928 173.493 47.4C171.221 48.904 167.925 49.656 163.605 49.656C160.501 49.656 158.053 49.32 156.261 48.648C154.469 48.008 153.205 47.096 152.469 45.912C151.765 44.728 151.413 43.24 151.413 41.448H158.229C158.229 42.216 158.373 42.824 158.661 43.272C158.981 43.72 159.541 44.056 160.341 44.28C161.141 44.504 162.293 44.616 163.797 44.616C165.877 44.616 167.317 44.36 168.117 43.848C168.917 43.368 169.317 42.664 169.317 41.736C169.317 40.968 169.013 40.36 168.405 39.912C167.797 39.464 166.885 39.24 165.669 39.24H161.973C159.349 39.24 157.381 38.776 156.069 37.848C154.789 36.888 154.149 35.672 154.149 34.2C154.149 33.272 154.421 32.376 154.965 31.512C155.509 30.616 156.245 29.88 157.173 29.304C155.573 28.44 154.405 27.432 153.669 26.28C152.965 25.096 152.613 23.672 152.613 22.008C152.613 19.16 153.637 16.904 155.685 15.24C157.733 13.544 160.437 12.696 163.797 12.696C166.357 12.76 168.517 12.504 170.277 11.928C172.069 11.352 173.909 10.504 175.797 9.38399L177.573 15ZM163.989 17.688C162.805 17.688 161.861 18.072 161.157 18.84C160.485 19.576 160.149 20.6 160.149 21.912C160.149 23.288 160.485 24.36 161.157 25.128C161.861 25.864 162.805 26.232 163.989 26.232C165.237 26.232 166.181 25.864 166.821 25.128C167.493 24.392 167.829 23.288 167.829 21.816C167.829 19.064 166.549 17.688 163.989 17.688Z" fill="#0E0E0E"/>
<path d="M201.574 39H194.998L194.662 35.784C192.806 38.472 190.23 39.816 186.934 39.816C184.598 39.816 182.822 39.112 181.606 37.704C180.422 36.296 179.83 34.328 179.83 31.8V13.512H187.414V30.84C187.414 32.088 187.606 32.968 187.99 33.48C188.406 33.96 189.03 34.2 189.862 34.2C191.462 34.2 192.838 33.208 193.99 31.224V13.512H201.574V39Z" fill="#0E0E0E"/>
<path d="M216.514 12.696C218.338 12.696 220.05 12.968 221.65 13.512C223.25 14.056 224.658 14.824 225.874 15.816L223.09 20.088C221.01 18.776 218.914 18.12 216.802 18.12C215.81 18.12 215.042 18.296 214.498 18.648C213.986 18.968 213.73 19.432 213.73 20.04C213.73 20.52 213.842 20.92 214.066 21.24C214.322 21.528 214.818 21.832 215.554 22.152C216.29 22.472 217.426 22.856 218.962 23.304C221.618 24.072 223.587 25.08 224.867 26.328C226.179 27.544 226.835 29.24 226.835 31.416C226.835 33.144 226.338 34.648 225.346 35.928C224.354 37.176 222.994 38.136 221.266 38.808C219.538 39.48 217.618 39.816 215.507 39.816C213.363 39.816 211.363 39.48 209.507 38.808C207.683 38.136 206.13 37.208 204.85 36.024L208.546 31.896C210.69 33.56 212.946 34.392 215.314 34.392C216.466 34.392 217.363 34.184 218.003 33.768C218.675 33.352 219.01 32.76 219.01 31.992C219.01 31.384 218.882 30.904 218.626 30.552C218.37 30.2 217.874 29.88 217.138 29.592C216.402 29.272 215.234 28.888 213.634 28.44C211.106 27.704 209.218 26.68 207.97 25.368C206.722 24.056 206.098 22.424 206.098 20.472C206.098 19 206.514 17.688 207.346 16.536C208.21 15.352 209.426 14.424 210.994 13.752C212.594 13.048 214.434 12.696 216.514 12.696Z" fill="#0E0E0E"/>
<path d="M246.726 37.8C245.798 38.44 244.71 38.936 243.462 39.288C242.246 39.64 241.03 39.816 239.814 39.816C234.246 39.784 231.462 36.712 231.462 30.6V18.792H227.862V13.512H231.462V7.99199L239.046 7.12799V13.512H244.902L244.086 18.792H239.046V30.504C239.046 31.688 239.238 32.536 239.622 33.048C240.006 33.56 240.614 33.816 241.446 33.816C242.31 33.816 243.222 33.544 244.182 33L246.726 37.8Z" fill="#0E0E0E"/>
<path d="M259.453 12.696C263.357 12.696 266.413 13.896 268.621 16.296C270.829 18.664 271.934 21.992 271.934 26.28C271.934 29 271.421 31.384 270.397 33.432C269.405 35.448 267.965 37.016 266.077 38.136C264.221 39.256 262.013 39.816 259.453 39.816C255.581 39.816 252.525 38.632 250.285 36.264C248.077 33.864 246.973 30.52 246.973 26.232C246.973 23.512 247.47 21.144 248.462 19.128C249.486 17.08 250.925 15.496 252.781 14.376C254.669 13.256 256.893 12.696 259.453 12.696ZM259.453 18.264C257.917 18.264 256.765 18.92 255.997 20.232C255.229 21.512 254.845 23.512 254.845 26.232C254.845 29.016 255.213 31.048 255.949 32.328C256.717 33.608 257.885 34.248 259.453 34.248C260.989 34.248 262.141 33.608 262.909 32.328C263.677 31.016 264.061 29 264.061 26.28C264.061 23.496 263.677 21.464 262.909 20.184C262.173 18.904 261.021 18.264 259.453 18.264Z" fill="#0E0E0E"/>
<path d="M301.419 4.91999C306.155 4.91999 309.835 6.43999 312.459 9.47999C315.115 12.52 316.443 16.808 316.443 22.344C316.443 25.96 315.835 29.08 314.619 31.704C313.435 34.328 311.707 36.344 309.435 37.752C307.195 39.128 304.523 39.816 301.419 39.816C298.315 39.816 295.643 39.128 293.403 37.752C291.163 36.376 289.435 34.392 288.219 31.8C287.035 29.176 286.443 26.024 286.443 22.344C286.443 18.76 287.035 15.656 288.219 13.032C289.435 10.408 291.163 8.40799 293.403 7.03199C295.643 5.62399 298.315 4.91999 301.419 4.91999ZM301.419 10.68C299.147 10.68 297.451 11.608 296.331 13.464C295.243 15.288 294.699 18.248 294.699 22.344C294.699 26.44 295.259 29.416 296.379 31.272C297.499 33.128 299.179 34.056 301.419 34.056C303.723 34.056 305.419 33.144 306.507 31.32C307.627 29.464 308.187 26.472 308.187 22.344C308.187 18.216 307.627 15.24 306.507 13.416C305.387 11.592 303.691 10.68 301.419 10.68Z" fill="#0E0E0E"/>
<path d="M327.791 39.816C325.583 39.816 323.855 39.192 322.607 37.944C321.391 36.664 320.783 34.856 320.783 32.52V3.38399L328.367 2.56799V32.232C328.367 33.288 328.799 33.816 329.663 33.816C330.111 33.816 330.527 33.736 330.911 33.576L332.399 38.952C331.023 39.528 329.487 39.816 327.791 39.816Z" fill="#0E0E0E"/>
<path d="M342.857 13.512V39H335.273V13.512H342.857ZM339.017 0.071991C340.329 0.071991 341.401 0.487991 342.233 1.31999C343.097 2.11999 343.529 3.14399 343.529 4.39199C343.529 5.63999 343.097 6.67999 342.233 7.51199C341.401 8.31199 340.329 8.71199 339.017 8.71199C337.705 8.71199 336.633 8.31199 335.801 7.51199C334.969 6.67999 334.553 5.63999 334.553 4.39199C334.553 3.14399 334.969 2.11999 335.801 1.31999C336.633 0.487991 337.705 0.071991 339.017 0.071991Z" fill="#0E0E0E"/>
<path d="M370.756 13.512L362.74 39H353.764L345.556 13.512H353.812L358.324 33.24L363.028 13.512H370.756Z" fill="#0E0E0E"/>
<path d="M395.278 25.752C395.278 26.808 395.23 27.72 395.134 28.488H379.342C379.598 30.632 380.206 32.136 381.166 33C382.126 33.864 383.454 34.296 385.15 34.296C386.174 34.296 387.166 34.12 388.126 33.768C389.086 33.384 390.126 32.808 391.246 32.04L394.366 36.264C391.39 38.632 388.078 39.816 384.43 39.816C380.302 39.816 377.134 38.6 374.926 36.168C372.718 33.736 371.614 30.472 371.614 26.376C371.614 23.784 372.078 21.464 373.006 19.416C373.934 17.336 375.294 15.704 377.086 14.52C378.878 13.304 381.022 12.696 383.518 12.696C387.198 12.696 390.078 13.848 392.158 16.152C394.238 18.456 395.278 21.656 395.278 25.752ZM387.838 23.592C387.774 19.688 386.398 17.736 383.71 17.736C382.398 17.736 381.374 18.216 380.638 19.176C379.934 20.136 379.502 21.72 379.342 23.928H387.838V23.592Z" fill="#0E0E0E"/>
<path d="M407.122 13.512V39H399.538V13.512H407.122ZM403.283 0.071991C404.595 0.071991 405.667 0.487991 406.499 1.31999C407.363 2.11999 407.794 3.14399 407.794 4.39199C407.794 5.63999 407.363 6.67999 406.499 7.51199C405.667 8.31199 404.595 8.71199 403.283 8.71199C401.971 8.71199 400.898 8.31199 400.066 7.51199C399.234 6.67999 398.818 5.63999 398.818 4.39199C398.818 3.14399 399.234 2.11999 400.066 1.31999C400.898 0.487991 401.971 0.071991 403.283 0.071991Z" fill="#0E0E0E"/>
<path d="M426.909 12.792C427.837 12.792 428.685 12.904 429.453 13.128L428.253 20.472C427.293 20.248 426.525 20.136 425.949 20.136C424.445 20.136 423.293 20.664 422.493 21.72C421.725 22.744 421.117 24.296 420.669 26.376V39H413.085V13.512H419.709L420.333 18.456C420.909 16.696 421.773 15.32 422.925 14.328C424.109 13.304 425.437 12.792 426.909 12.792Z" fill="#0E0E0E"/>
<path d="M450.919 31.608C450.919 32.568 451.047 33.272 451.303 33.72C451.591 34.168 452.039 34.504 452.647 34.728L451.064 39.672C449.496 39.544 448.215 39.208 447.223 38.664C446.231 38.088 445.463 37.192 444.919 35.976C443.255 38.536 440.696 39.816 437.24 39.816C434.712 39.816 432.695 39.08 431.191 37.608C429.687 36.136 428.935 34.216 428.935 31.848C428.935 29.064 429.96 26.936 432.008 25.464C434.056 23.992 437.015 23.256 440.887 23.256H443.479V22.152C443.479 20.648 443.16 19.624 442.52 19.08C441.88 18.504 440.759 18.216 439.159 18.216C438.327 18.216 437.319 18.344 436.135 18.6C434.951 18.824 433.735 19.144 432.487 19.56L430.759 14.568C432.359 13.96 433.991 13.496 435.655 13.176C437.351 12.856 438.919 12.696 440.359 12.696C444.007 12.696 446.679 13.448 448.375 14.952C450.071 16.456 450.919 18.712 450.919 21.72V31.608ZM439.448 34.392C441.176 34.392 442.519 33.576 443.479 31.944V27.432H441.607C439.879 27.432 438.583 27.736 437.719 28.344C436.887 28.952 436.471 29.896 436.471 31.176C436.471 32.2 436.728 33 437.24 33.576C437.784 34.12 438.52 34.392 439.448 34.392Z" fill="#0E0E0E"/>
</svg>
